<svg xmlns="http://www.w3.org/2000/svg" width="1200" height="630" viewBox="0 0 1200 630">
  <rect width="1200" height="630" fill="#f8fafc"/>
  <text x="60" y="70" font-family="Arial" font-size="42" fill="#17202a">ProofLedger AI Architecture</text>
  <text x="60" y="110" font-family="Arial" font-size="20" fill="#5b6b7f">Evidence memory for AI-agent decisions</text>
  <g font-family="Arial" font-size="20" fill="#17202a">
    <rect x="60" y="190" width="210" height="90" fill="#ffffff" stroke="#cbd5e1"/>
    <text x="90" y="230">AI Agent</text><text x="90" y="258">Decision Packet</text>
    <rect x="340" y="190" width="210" height="90" fill="#ffffff" stroke="#cbd5e1"/>
    <text x="370" y="230">Vercel</text><text x="370" y="258">Next.js API</text>
    <rect x="620" y="190" width="210" height="90" fill="#ffffff" stroke="#cbd5e1"/>
    <text x="650" y="230">ProofLedger</text><text x="650" y="258">Validator</text>
    <rect x="900" y="190" width="230" height="90" fill="#ffffff" stroke="#cbd5e1"/>
    <text x="930" y="230">AWS DynamoDB</text><text x="930" y="258">Receipt Ledger</text>
    <rect x="340" y="390" width="210" height="90" fill="#ffffff" stroke="#cbd5e1"/>
    <text x="370" y="430">Vercel</text><text x="370" y="458">Dashboard</text>
    <rect x="620" y="390" width="210" height="90" fill="#ffffff" stroke="#cbd5e1"/>
    <text x="650" y="430">Human</text><text x="650" y="458">Review</text>
  </g>
  <g stroke="#64748b" stroke-width="3" fill="none" marker-end="url(#arrow)">
    <path d="M270 235 L340 235"/>
    <path d="M550 235 L620 235"/>
    <path d="M830 235 L900 235"/>
    <path d="M1015 280 L1015 345 L445 345 L445 390"/>
    <path d="M550 435 L620 435"/>
  </g>
  <defs><marker id="arrow" markerWidth="10" markerHeight="10" refX="6" refY="3" orient="auto"><path d="M0,0 L0,6 L6,3 z" fill="#64748b"/></marker></defs>
  <text x="60" y="560" font-family="Arial" font-size="18" fill="#5b6b7f">Maximum action: HUMAN_REVIEW_ONLY. No refund, claim, record update, merge, or deploy is executed.</text>
</svg>
